<svg xmlns="http://www.w3.org/2000/svg" width="1600" height="900" viewBox="0 0 1600 900" preserveAspectRatio="xMidYMid slice">
  <defs>
    <linearGradient id="grad" x1="0%" y1="0%" x2="100%" y2="100%">
      <stop offset="0%" stop-color="#0f2747"/>
      <stop offset="50%" stop-color="#1b4c88"/>
      <stop offset="100%" stop-color="#194b7d"/>
    </linearGradient>
    <linearGradient id="light" x1="0%" y1="0%" x2="0%" y2="100%">
      <stop offset="0%" stop-color="#ffffff" stop-opacity="0.25"/>
      <stop offset="100%" stop-color="#ffffff" stop-opacity="0.05"/>
    </linearGradient>
    <radialGradient id="glow" cx="70%" cy="35%" r="60%">
      <stop offset="0%" stop-color="#ffffff" stop-opacity="0.45"/>
      <stop offset="100%" stop-color="#ffffff" stop-opacity="0"/>
    </radialGradient>
  </defs>
  <rect width="1600" height="900" fill="url(#grad)"/>
  <rect width="1600" height="900" fill="url(#light)"/>
  <circle cx="1280" cy="260" r="460" fill="url(#glow)"/>
  <path d="M0 640 Q400 560 800 620 T1600 560 L1600 900 L0 900 Z" fill="#ffffff" fill-opacity="0.08"/>
  <path d="M0 720 Q420 660 820 700 T1600 680 L1600 900 L0 900 Z" fill="#ffffff" fill-opacity="0.12"/>
  <g fill="none" stroke="#ffffff" stroke-opacity="0.15" stroke-width="3">
    <path d="M-100 530 C260 420 620 480 960 430 S1680 460 1840 380"/>
    <path d="M-80 610 C300 520 660 580 980 530 S1660 560 1820 500"/>
    <path d="M-50 690 C320 610 680 660 1000 620 S1640 650 1800 600"/>
  </g>
</svg>
